<svg width="50" height="50" viewBox="0 0 50 50" fill="none" xmlns="http://www.w3.org/2000/svg">
<path d="M25 0L46.6506 12.5V37.5L25 50L3.34937 37.5V12.5L25 0Z" fill="black"/>
<path d="M25 31.8L30.4545 37.4L25 43L19.5455 37.4L25 31.8Z" fill="#2676FF"/>
<path d="M23.6364 11.187L20.6818 8V11.187V28.9431L17.9545 31.2195L13.6364 26.8943L14.5455 20.5203L10 28.0325L17.9545 36L23.6364 31.2195V11.187Z" fill="#2676FF" stroke="#2676FF"/>
<path d="M26.3636 11.187L29.3182 8V11.187V28.9431L32.0455 31.2195L36.3636 26.8943L35.4545 20.5203L40 28.0325L32.0455 36L26.3636 31.2195V11.187Z" fill="#2676FF" stroke="#2676FF"/>
</svg>
