<svg width="40" height="44" fill="none" xmlns="http://www.w3.org/2000/svg"><path d="M20 2l17.32 10v20L20 42 2.68 32V12L20 2z" fill="#2676FF"/><path opacity=".43" d="M20 4l15.589 9v18L20 40 4.412 31V13L20 4z" fill="#003"/><path opacity=".43" d="M20 4l15.589 9v18L20 40 4.412 31V13L20 4z" fill="#003"/><path opacity=".43" d="M20 4l15.589 9v18L20 40 4.412 31V13L20 4z" fill="#003"/><path opacity=".43" d="M20 4l15.589 9v18L20 40 4.412 31V13L20 4z" fill="#003"/><path opacity=".43" d="M20 4l15.589 9v18L20 40 4.412 31V13L20 4z" fill="#003"/><g opacity=".43" filter="url(#filter0_f)"><path d="M20 4l15.589 9v18L20 40 4.412 31V13L20 4z" fill="#003"/></g><path d="M20 30l4 4-4 4-4-4 4-4z" fill="#2676FF"/><path d="M19 14.276L16.833 12v14.959l-2 1.626-3.166-3.09.666-4.552L9 26.31 14.833 32 19 28.585V14.276zM21 14.276L23.167 12v14.959l2 1.626 3.166-3.09-.666-4.552L31 26.31 25.167 32 21 28.585V14.276z" fill="#2676FF" stroke="#2676FF"/><defs><filter id="filter0_f" x=".412" y="0" width="39.177" height="44" filterUnits="userSpaceOnUse" color-interpolation-filters="sRGB"><feFlood flood-opacity="0" result="BackgroundImageFix"/><feBlend in="SourceGraphic" in2="BackgroundImageFix" result="shape"/><feGaussianBlur stdDeviation="2" result="effect1_foregroundBlur"/></filter></defs></svg>